<svg xmlns="http://www.w3.org/2000/svg" viewBox="0 0 97.61 16.81"><defs><style>.cls-1{fill:#1d1d1b;}.cls-2{fill:#010101;}</style></defs><g id="Capa_2" data-name="Capa 2"><g id="Capa_1-2" data-name="Capa 1"><path class="cls-1" d="M32.42.17h2.8V16.64h-2.8ZM34.28,14h2.11a1.09,1.09,0,0,0,.87-.35,1.43,1.43,0,0,0,.3-1V4.18a1.44,1.44,0,0,0-.3-1,1.09,1.09,0,0,0-.87-.34H34.28V.17h2.39a4.26,4.26,0,0,1,2,.44A2.91,2.91,0,0,1,40,1.88a4.08,4.08,0,0,1,.44,2V13a4.15,4.15,0,0,1-.44,2,3,3,0,0,1-1.28,1.27,4.36,4.36,0,0,1-2,.43H34.28Z"/><path class="cls-1" d="M42.19.17H45V16.64h-2.8Zm1.33,7H49V9.85H43.52Zm3.69-7H50V16.64H47.21Z"/><path class="cls-1" d="M56.69.17H59.5V16.64H56.69ZM58.29,14h2.47a1.13,1.13,0,0,0,.81-.27,1.06,1.06,0,0,0,.29-.78V10.74a1.86,1.86,0,0,0-.13-.7,1,1,0,0,0-.39-.44,1.24,1.24,0,0,0-.62-.15H58.29V6.84h2.36a1,1,0,0,0,.77-.31,1.34,1.34,0,0,0,.28-.91V3.85a1,1,0,0,0-1-1.05H58.29V.17h2.65a4.13,4.13,0,0,1,1.9.4,2.72,2.72,0,0,1,1.21,1.16,3.88,3.88,0,0,1,.41,1.84V5.34a3.05,3.05,0,0,1-.28,1.32,2.56,2.56,0,0,1-.82.94,3.21,3.21,0,0,1-1.3.49,3.52,3.52,0,0,1,1.41.49,2.4,2.4,0,0,1,.89,1A3,3,0,0,1,64.67,11v2.24a3.93,3.93,0,0,1-.4,1.86,2.77,2.77,0,0,1-1.2,1.17,4,4,0,0,1-1.88.4h-2.9Z"/><path class="cls-1" d="M69,16.64h-2.8V.17H69Z"/><path class="cls-1" d="M70.77.17h2.8V16.64h-2.8ZM73,9,76.2.17h3.16L73,14Zm1-1.38L76,6l3.93,10.68H76.81Z"/><path class="cls-1" d="M80.88.17h2.8V16.64h-2.8Zm1.24,0h6.07V2.91H82.12Zm0,6.92h5.5V9.82h-5.5Zm0,6.81h6.07v2.74H82.12Z"/><path class="cls-1" d="M91.32,16.33a3.29,3.29,0,0,1-1.42-1.39,4.54,4.54,0,0,1-.49-2.19v-.89l2.79,0v.88a1.33,1.33,0,0,0,.35,1,1.29,1.29,0,0,0,1,.36,1.26,1.26,0,0,0,1-.35,1.35,1.35,0,0,0,.33-1V11.31a1.26,1.26,0,0,0-.25-.79,2.34,2.34,0,0,0-.66-.58c-.27-.16-.63-.35-1.09-.58l-.08,0-.09,0-.15-.07a9.33,9.33,0,0,1-1.56-1A3.86,3.86,0,0,1,89.85,6.9a4.34,4.34,0,0,1-.43-2V4a4.53,4.53,0,0,1,.48-2.16A3.2,3.2,0,0,1,91.3.48,4.67,4.67,0,0,1,93.5,0a4.53,4.53,0,0,1,2.16.48A3.23,3.23,0,0,1,97,1.86a4.67,4.67,0,0,1,.48,2.2V5l-2.8,0V4.08a1.41,1.41,0,0,0-.32-1,1.13,1.13,0,0,0-.9-.36,1.3,1.3,0,0,0-.94.32,1.18,1.18,0,0,0-.34.89V5a1.32,1.32,0,0,0,.25.81,2.23,2.23,0,0,0,.61.57c.24.15.58.34,1,.56l.26.12.26.14,0,0,0,0a12.8,12.8,0,0,1,1.52.92,3.46,3.46,0,0,1,1,1.19,4.28,4.28,0,0,1,.41,2v1.37a4.66,4.66,0,0,1-.48,2.19,3.24,3.24,0,0,1-1.4,1.39,4.66,4.66,0,0,1-2.19.48A4.78,4.78,0,0,1,91.32,16.33Z"/><path class="cls-2" d="M20.87,7.19A4.62,4.62,0,0,0,19.3,8.76a4.75,4.75,0,0,0-.7,2.5,4.83,4.83,0,0,0,1.34,3.35,4.48,4.48,0,0,0,6.49,0,4.85,4.85,0,0,0,0-6.69,4.49,4.49,0,0,0-3.24-1.38h0L23,5.72h.23A5.21,5.21,0,0,1,27,7.35a5.65,5.65,0,0,1,0,7.84,5.28,5.28,0,0,1-7.61,0,5.63,5.63,0,0,1-1.57-3.93,5.7,5.7,0,0,1,.81-2.93,5.53,5.53,0,0,1,2-2ZM6,10.15l4.62-4.36L9.71,2.32l-.86.07H8.69A1.74,1.74,0,0,1,7.5,1.92,1.72,1.72,0,0,1,7,.81a.57.57,0,0,1,0-.13A.53.53,0,0,1,7.13.27.57.57,0,0,1,7.49.14h3.7a2,2,0,0,1,1.07.24,1,1,0,0,1,.48.91.87.87,0,0,1-.13.51.76.76,0,0,1-.58.31l-1.51.13.36,1.38h9.87L20,.82H19a.41.41,0,0,1-.39-.41A.41.41,0,0,1,19,0h3.27a1.75,1.75,0,0,1,1.26.53,2,2,0,0,1,.52,1.3,1.86,1.86,0,0,1-.52,1.29,1.73,1.73,0,0,1-1.26.55.42.42,0,0,1,0-.83,1,1,0,0,0,.7-.29,1,1,0,0,0,.28-.72A1,1,0,0,0,23,1.12a.94.94,0,0,0-.7-.3H20.83l.82,3.1v0l.24.87a.17.17,0,0,1,0,.07L23.26,10a1.23,1.23,0,0,1,.82.38,1.32,1.32,0,0,1,.37.91,1.36,1.36,0,0,1-.37.92,1.23,1.23,0,0,1-.89.38,1.22,1.22,0,0,1-.89-.38,1.32,1.32,0,0,1-.37-.92,1.28,1.28,0,0,1,.37-.91.7.7,0,0,1,.19-.16L21.22,5.38a7.68,7.68,0,0,0-3.89,1.56,18.89,18.89,0,0,0-3.45,3.25,1.75,1.75,0,0,1,.36,1.07,2,2,0,0,1-.24.91l.91.72.59-.16a.2.2,0,0,1,.11.39l-1.38.39a.2.2,0,0,1-.24-.15.2.2,0,0,1,.14-.25l.3-.09-.67-.53,0,0a1.66,1.66,0,0,1-2.43,0,1.63,1.63,0,0,1-.44-.83H6.56a1.22,1.22,0,0,1-.3.5,1.2,1.2,0,0,1-.89.38,1.23,1.23,0,0,1-.89-.38,1.35,1.35,0,0,1-.36-.92,1.31,1.31,0,0,1,.36-.91A1.23,1.23,0,0,1,5.37,10a1.32,1.32,0,0,1,.65.18Zm4.86-3.48-4.35,4.1a1,1,0,0,1,0,.1h4.28a2.17,2.17,0,0,1,.46-.86,2.88,2.88,0,0,1,.39-.3Zm-5.51,9a4.09,4.09,0,0,1-3-1.29,4.46,4.46,0,0,1,0-6.19,4.15,4.15,0,0,1,5.24-.64l-.31.29a3.7,3.7,0,0,0-1.93-.53A3.78,3.78,0,0,0,2.65,8.45a4.07,4.07,0,0,0,0,5.63,3.77,3.77,0,0,0,5.44,0A4,4,0,0,0,9,12.5h.42a4.38,4.38,0,0,1-1.07,1.86,4.13,4.13,0,0,1-3,1.29ZM9,10.05c0-.14-.09-.27-.14-.4l.3-.3a4.54,4.54,0,0,1,.26.7ZM5.37,16.81a5.31,5.31,0,0,1-3.8-1.62,5.68,5.68,0,0,1,0-7.84,5.24,5.24,0,0,1,3.8-1.64,5.33,5.33,0,0,1,3.1,1l-.6.57a4.48,4.48,0,0,0-5.73.62,4.82,4.82,0,0,0,0,6.69,4.46,4.46,0,0,0,6.47,0A4.75,4.75,0,0,0,9.8,12.5h.81a5.47,5.47,0,0,1-1.44,2.69,5.27,5.27,0,0,1-3.8,1.62ZM9.8,10.05a5.18,5.18,0,0,0-.34-.93l.6-.57a5.19,5.19,0,0,1,.55,1.5ZM23.26,6.88a4.13,4.13,0,0,1,2.93,1.29,4.46,4.46,0,0,1,0,6.19,4.15,4.15,0,0,1-6,0,4.45,4.45,0,0,1-1.24-3.1A4.52,4.52,0,0,1,19.52,9,4.43,4.43,0,0,1,21,7.53l.1.41a4.06,4.06,0,0,0-.61,6.14,3.82,3.82,0,0,0,2.73,1.16,3.78,3.78,0,0,0,2.72-1.16,4.07,4.07,0,0,0,0-5.63A3.83,3.83,0,0,0,23.37,7.3ZM12.46,9.5h.06a1.73,1.73,0,0,1,.75.18,19.29,19.29,0,0,1,3.6-3.41A8.78,8.78,0,0,1,21,4.57l0-.12H11.11Z"/></g></g></svg>