<?xml version="1.0" encoding="utf-8"?>
<!-- Generator: Adobe Illustrator 26.3.1, SVG Export Plug-In . SVG Version: 6.00 Build 0)  -->
<svg version="1.1" id="Capa_1" xmlns="http://www.w3.org/2000/svg" xmlns:xlink="http://www.w3.org/1999/xlink" x="0px" y="0px"
	 viewBox="0 0 496.86 122.37" style="enable-background:new 0 0 496.86 122.37;" xml:space="preserve">
<style type="text/css">
	.st0{fill:#010202;}
</style>
<g>
	<g>
		<path class="st0" d="M164.86,2h14v117h-14V2z M174.86,100h10.9c1.95,0,3.46-0.82,4.51-2.46c1.06-1.64,1.58-3.94,1.58-6.91V30.37
			c0-2.96-0.53-5.26-1.58-6.91S187.72,21,185.77,21h-10.9V2h12.09c3.97,0,7.37,1.03,10.2,3.1c2.83,2.07,4.99,5.07,6.48,9.01
			s2.23,8.65,2.23,14.12v64.54c0,5.47-0.74,10.18-2.23,14.12c-1.49,3.94-3.66,6.95-6.5,9.01s-6.26,3.1-10.23,3.1h-12.03V100z"/>
		<path class="st0" d="M214.86,2h14v117h-14V2z M221.86,52h28v19h-28V52z M240.86,2h14v117h-14V2z"/>
		<path class="st0" d="M288.86,2h14v117h-14V2z M296.86,100h12.47c1.75,0,3.1-0.65,4.07-1.95s1.45-3.12,1.45-5.45V77.07
			c0-1.91-0.22-3.54-0.66-4.9c-0.44-1.35-1.09-2.39-1.97-3.1c-0.87-0.72-1.92-1.07-3.13-1.07h-12.25V49h11.75
			c1.66,0,2.95-0.77,3.87-2.31c0.92-1.54,1.38-3.74,1.38-6.61V28.62c0-2.4-0.46-4.27-1.38-5.61c-0.92-1.34-2.19-2.01-3.81-2.01
			h-11.8V2h14.63c3.44,0,6.39,0.94,8.84,2.82c2.46,1.88,4.32,4.63,5.61,8.25s1.92,7.98,1.92,13.08V38.7c0,3.54-0.44,6.67-1.32,9.38
			s-2.15,4.94-3.82,6.68c-1.67,1.74-3.68,2.91-6.03,3.5c2.56,0.54,4.75,1.69,6.55,3.46c1.81,1.77,3.19,4.09,4.16,6.96
			c0.96,2.87,1.45,6.21,1.45,10.02v15.6c0,5.22-0.68,9.68-2.04,13.37c-1.36,3.7-3.36,6.51-5.99,8.44s-5.78,2.89-9.45,2.89h-14.52
			V100z"/>
		<path class="st0" d="M350.86,119h-14V2h14V119z"/>
		<path class="st0" d="M360.86,2h14v117h-14V2z M371.86,64.93L388.16,2h16.13l-32.42,98.42V64.93z M376.97,55.1l9.79-11.99
			L406.81,119h-15.67L376.97,55.1z"/>
		<path class="st0" d="M411.86,2h14v117h-14V2z M417.86,2h31v19h-31V2z M417.86,51h28v19h-28V51z M417.86,100h31v19h-31V100z"/>
		<path class="st0" d="M464.65,116.75c-3.17-2.28-5.59-5.58-7.27-9.9c-1.68-4.32-2.52-9.51-2.52-15.57V85l15-0.16v6.28
			c0,2.95,0.58,5.27,1.75,6.96c1.17,1.69,2.79,2.53,4.86,2.53c2.03,0,3.61-0.83,4.72-2.49c1.11-1.66,1.67-3.94,1.67-6.84V80.52
			c0-2.11-0.43-3.95-1.28-5.51c-0.85-1.56-1.95-2.91-3.29-4.04s-3.17-2.5-5.47-4.08c-0.15-0.11-0.29-0.21-0.43-0.32
			c-0.13-0.11-0.27-0.21-0.43-0.32l-0.74-0.48c-3.06-2.17-5.67-4.43-7.83-6.78c-2.16-2.35-3.95-5.46-5.39-9.31
			s-2.16-8.61-2.16-14.27v-6.34c0-5.96,0.81-11.07,2.43-15.33s3.98-7.52,7.07-9.78c3.09-2.25,6.81-3.38,11.17-3.38
			c4.24,0,7.88,1.13,10.94,3.38c3.05,2.25,5.38,5.54,6.99,9.86s2.41,9.51,2.41,15.57V36l-14,0.24v-6.68c0-3-0.56-5.35-1.68-7.04
			s-2.68-2.53-4.68-2.53c-2.12,0-3.75,0.76-4.91,2.29c-1.16,1.53-1.74,3.63-1.74,6.32v8.1c0,2.17,0.41,4.04,1.22,5.63
			c0.81,1.59,1.83,2.92,3.06,4c1.23,1.08,2.94,2.39,5.13,3.92c0.42,0.26,0.84,0.55,1.28,0.87s0.88,0.63,1.33,0.95
			c0.08,0.05,0.14,0.11,0.2,0.16c0.06,0.05,0.12,0.11,0.2,0.16c3.14,2.32,5.67,4.48,7.6,6.46c1.93,1.98,3.57,4.77,4.93,8.36
			c1.36,3.59,2.04,8.19,2.04,13.79v10.27c0,6.06-0.82,11.25-2.46,15.57c-1.64,4.32-4.03,7.62-7.15,9.9
			c-3.13,2.28-6.87,3.42-11.24,3.42C471.61,120.17,467.82,119.03,464.65,116.75z"/>
	</g>
	<path class="st0" d="M105.89,51.73c-3.35,2.82-6.19,6.82-8.28,11.55c-2.34,5.36-3.66,11.64-3.66,18.37
		c0,9.64,2.72,18.27,7.07,24.55c4.36,6.27,10.42,10.18,17.06,10.18c6.63,0,12.7-3.91,17.06-10.18c4.36-6.27,7.07-14.91,7.07-24.55
		c0-9.55-2.72-18.27-7.07-24.55C130.77,50.82,124.71,47,118.08,47h-0.13l-1.07-6h0.06c0.51,0,0.88-0.09,1.14-0.09
		c7.83,0,14.91,4.55,20.02,12c5.12,7.36,8.28,17.55,8.28,28.73c0,11.27-3.16,21.46-8.28,28.82c-5.12,7.36-12.19,11.91-20.02,11.91
		c-7.83,0-14.91-4.55-20.03-11.91c-5.12-7.36-8.28-17.55-8.28-28.82c0-7.91,1.58-15.27,4.3-21.55c2.59-6,6.32-11,10.68-14.36
		L105.89,51.73z M29.3,72.96l23.82-31.35l-4.76-24.94l-4.46,0.53c-0.25,0-0.56,0.09-0.8,0.09c-2.35,0-4.52-1.34-6.13-3.47
		c-1.61-2.05-2.66-4.9-2.85-8.01c-0.06-0.27-0.06-0.62-0.06-0.89c0-1.16,0.37-2.23,0.99-2.94C35.55,1.36,36.17,1,36.91,1h20.05
		c2.1,0,4.02,0.44,5.5,1.78c1.55,1.33,2.47,3.47,2.47,6.49c0,1.25-0.12,2.49-0.68,3.65c-0.62,1.25-1.54,2.05-2.97,2.22l-7.79,0.98
		L55.36,26l50.32,0.09L101.86,6h-5.71c-1.14,0-2.08-1.36-2.08-3s0.95-3,2.08-3h17.18c2.59,0,4.93,1.45,6.63,3.91
		c1.64,2.45,2.72,5.82,2.72,9.55s-1.07,7.09-2.72,9.46c-1.71,2.45-4.04,4-6.63,4c-1.14,0-2.08-1.36-2.08-3
		c0-1.73,0.95-3.09,2.08-3.09c1.45,0,2.72-0.82,3.66-2.09c0.95-1.36,1.52-3.27,1.52-5.27c0-2.09-0.57-3.91-1.52-5.27
		C116.06,6.82,114.79,6,113.34,6h-7.77l4.3,22.73c0,0.09,0-0.48,0-0.39l1.24,6.23c0.06,0.18,0.06,0.36,0.06,0.53l6.99,36.6
		c1.61,0.09,3.09,1.07,4.21,2.67c1.18,1.69,1.92,4.01,1.92,6.59c0,2.58-0.74,4.9-1.92,6.59c-1.18,1.69-2.78,2.76-4.58,2.76
		c-1.79,0-3.4-1.07-4.58-2.76c-1.18-1.69-1.92-4.01-1.92-6.59c0-2.58,0.74-4.9,1.92-6.59c0.31-0.45,0.62-0.8,0.99-1.16l-6.56-34.55
		c-6.93,0.62-13.8,5.08-20.05,11.22c-6.87,6.77-12.99,15.5-17.76,23.33c1.18,2.14,1.86,4.9,1.86,7.75c0,2.41-0.5,4.54-1.24,6.5
		l4.7,5.16l3.03-1.16c0.56-0.18,1.11,0.27,1.24,1.07c0.19,0.8-0.19,1.6-0.68,1.78l-7.12,2.76c-0.5,0.18-1.11-0.27-1.24-1.07
		c-0.12-0.8,0.19-1.6,0.74-1.78l1.55-0.62l-3.47-3.83c0,0,0,0,0,0c-1.62,2.42-3.83,3.92-6.37,3.92c-2.41,0-4.64-1.42-6.25-3.74
		c-1.11-1.6-1.92-3.65-2.29-5.97H32.08c-0.31,1.34-0.8,2.58-1.55,3.56c-1.11,1.69-2.78,2.76-4.58,2.76c-1.73,0-3.4-1.07-4.58-2.76
		c-1.11-1.69-1.86-4.01-1.86-6.59c0-2.58,0.74-4.9,1.86-6.59c1.18-1.69,2.85-2.67,4.58-2.67C27.2,71.71,28.31,72.15,29.3,72.96
		L29.3,72.96z M55.4,48.17L33.16,77.43c0.13,0.26,0.15,0.31,0.28,0.57h21.83c0.43-2.29,1.22-4.4,2.32-6.07
		c0.61-0.79,1.28-1.5,1.96-2.11L55.4,48.17z M27.33,111.35c-5.93,0-11.37-3.43-15.29-9.15c-3.91-5.63-6.36-13.38-6.36-22
		s2.45-16.37,6.36-22c3.91-5.63,9.36-9.15,15.29-9.15c4.22,0,8.13,1.76,11.44,4.66l-1.59,2.02c-2.87-2.38-6.24-3.78-9.85-3.78
		c-5.38,0-10.27,3.17-13.82,8.27c-3.55,5.1-5.75,12.23-5.75,19.98c0,7.83,2.2,14.87,5.75,19.98c3.55,5.1,8.44,8.27,13.82,8.27
		c5.44,0,10.33-3.17,13.88-8.27c2.14-3.08,3.79-6.86,4.77-11.18h2.14c-1.04,5.1-2.94,9.59-5.44,13.2
		C38.77,107.92,33.33,111.35,27.33,111.35L27.33,111.35z M46.05,72c-0.24-0.97-0.49-1.94-0.73-2.82l1.53-2.11
		c0.55,1.58,0.98,3.26,1.35,4.93L46.05,72L46.05,72z M27.33,119.63c-7.52,0-14.37-4.4-19.32-11.53C3.06,100.97,0,91.11,0,80.2
		c0-10.82,3.06-20.68,8.01-27.81c4.95-7.22,11.8-11.62,19.32-11.62c5.87,0,11.31,2.73,15.78,7.22l-3.06,4.05
		c-3.67-3.43-8.01-5.37-12.72-5.37c-6.42,0-12.23,3.7-16.45,9.77C6.67,62.51,4.04,70.96,4.04,80.2c0,9.33,2.63,17.69,6.85,23.76
		c4.22,6.07,10.03,9.86,16.45,9.86c6.48,0,12.29-3.78,16.51-9.86c2.87-4.05,4.95-9.15,6.05-14.96h4.16
		c-1.16,7.39-3.73,13.91-7.34,19.1C41.76,115.23,34.92,119.63,27.33,119.63L27.33,119.63z M49.9,72c-0.43-2.29-0.98-4.49-1.71-6.6
		l3.06-4.05c1.28,3.26,2.26,6.86,2.81,10.65H49.9z M118.44,49.39c5.81,0.18,11.13,3.61,14.92,9.15c3.91,5.63,6.36,13.38,6.36,22
		c0,8.62-2.45,16.37-6.36,22c-3.91,5.72-9.29,9.15-15.29,9.15c-5.99,0-11.37-3.43-15.29-9.15c-3.91-5.63-6.36-13.38-6.36-22
		c0-5.81,1.1-11.26,3-15.84c1.83-4.4,4.34-8.01,7.34-10.65l0.55,2.9c-2.51,2.38-4.59,5.46-6.11,9.15
		c-1.77,4.22-2.75,9.15-2.75,14.43c0,7.83,2.2,14.87,5.75,19.98c3.55,5.1,8.44,8.27,13.88,8.27c5.44,0,10.33-3.17,13.88-8.27
		c3.55-5.1,5.75-12.14,5.75-19.98c0-7.74-2.2-14.87-5.75-19.98c-3.36-4.75-7.89-7.83-12.96-8.18L118.44,49.39z M63.43,68.01
		c1.46-0.07,2.85,0.38,4.1,1.23c4.91-8.21,11.28-17.29,18.39-24.26c6.56-6.44,13.73-11.21,21.09-12.09L106.83,32L56.5,31.91
		L63.43,68.01C63.43,68,63.43,68,63.43,68.01z"/>
</g>
</svg>
